HIERARCHY
ROOT Hips
{
	OFFSET -3.958830 18.904000 13.208200
	CHANNELS 6 Xposition Yposition Zposition Zrotation Yrotation Xrotation 
	JOINT LHipJoint
	{
		OFFSET 0.000000 0.000000 0.000000
		CHANNELS 3 Zrotation Yrotation Xrotation
		JOINT LeftUpLeg
		{
			OFFSET 1.800000 -1.400000 0.085000
			CHANNELS 3 Zrotation Yrotation Xrotation
			JOINT LeftLeg
			{
				OFFSET 2.215000 -6.000000 0.000000
				CHANNELS 3 Zrotation Yrotation Xrotation
				JOINT LeftFoot
				{
					OFFSET 2.500000 -6.900000 0.000000
					CHANNELS 3 Zrotation Yrotation Xrotation
					JOINT LeftToeBase
					{
						OFFSET 0.200000 -0.500000 1.950000
						CHANNELS 3 Zrotation Yrotation Xrotation
						End Site
						{
							OFFSET 0.000000 0.000000 0.000000
						}
					}
				}
			}
		}
	}
	JOINT RHipJoint
	{
		OFFSET 0.000000 0.000000 0.000000
		CHANNELS 3 Zrotation Yrotation Xrotation
		JOINT RightUpLeg
		{
			OFFSET -1.800000 -1.400000 0.085000
			CHANNELS 3 Zrotation Yrotation Xrotation
			JOINT RightLeg
			{
				OFFSET -2.215000 -6.000000 0.000000
				CHANNELS 3 Zrotation Yrotation Xrotation
				JOINT RightFoot
				{
					OFFSET -2.500000 -6.900000 0.000000
					CHANNELS 3 Zrotation Yrotation Xrotation
					JOINT RightToeBase
					{
						OFFSET -0.200000 -0.500000 1.950000
						CHANNELS 3 Zrotation Yrotation Xrotation
						End Site
						{
							OFFSET 0.000000 0.000000 0.000000
						}
					}
				}
			}
		}
	}
	JOINT LowerBack
	{
		OFFSET 0.000000 0.000000 0.000000
		CHANNELS 3 Zrotation Yrotation Xrotation
		JOINT Spine
		{
			OFFSET -0.087000 1.940000 -0.288900
			CHANNELS 3 Zrotation Yrotation Xrotation
			JOINT Spine1
			{
				OFFSET 0.000000 1.950000 0.060000
				CHANNELS 3 Zrotation Yrotation Xrotation
				JOINT Neck
				{
					OFFSET 0.000000 0.000000 0.000000
					CHANNELS 3 Zrotation Yrotation Xrotation
					JOINT Neck1
					{
						OFFSET 0.000000 1.600000 0.340000
						CHANNELS 3 Zrotation Yrotation Xrotation
						JOINT Head
						{
							OFFSET 0.000000 1.667000 -0.240000
							CHANNELS 3 Zrotation Yrotation Xrotation
							End Site
							{
								OFFSET 0.000000 0.000000 0.000000
							}
						}
					}
				}
				JOINT LeftShoulder
				{
					OFFSET 0.000000 0.000000 0.000000
					CHANNELS 3 Zrotation Yrotation Xrotation
					JOINT LeftArm
					{
						OFFSET 2.700000 1.550000 -0.730000
						CHANNELS 3 Zrotation Yrotation Xrotation
						JOINT LeftForeArm
						{
							OFFSET 5.450000 0.000000 0.000000
							CHANNELS 3 Zrotation Yrotation Xrotation
							JOINT LeftHand
							{
								OFFSET 3.450000 0.000000 0.000000
								CHANNELS 3 Zrotation Yrotation Xrotation
								JOINT LeftHandIndex1
								{
									OFFSET 0.750000 0.000000 0.000000
									CHANNELS 3 Zrotation Yrotation Xrotation
									End Site
									{
										OFFSET 0.000000 0.000000 0.000000
									}
								}
							}
						}
					}
				}
				JOINT RightShoulder
				{
					OFFSET 0.000000 0.000000 0.000000
					CHANNELS 3 Zrotation Yrotation Xrotation
					JOINT RightArm
					{
						OFFSET -2.700000 1.550000 -0.730000
						CHANNELS 3 Zrotation Yrotation Xrotation
						JOINT RightForeArm
						{
							OFFSET -5.450000 0.000000 0.000000
							CHANNELS 3 Zrotation Yrotation Xrotation
							JOINT RightHand
							{
								OFFSET -3.450000 0.000000 0.000000
								CHANNELS 3 Zrotation Yrotation Xrotation
								JOINT RightHandIndex1
								{
									OFFSET -0.750000 0.000000 0.000000
									CHANNELS 3 Zrotation Yrotation Xrotation
									End Site
									{
										OFFSET 0.000000 0.000000 0.000000
									}
								}
							}
						}
					}
				}
			}
		}
	}
}
MOTION
Frames: 8
Frame Time: 0.016667
-0.693910 17.419960 -3.411600 -22.728931 38.940862 -7.738716 -15.270720 12.288414 2.362494 14.036197 -3.755804 -22.716389 -4.610390 6.175555 18.571905 -0.175449 4.176217 3.137259 -0.045240 -0.440390 -0.001190 18.483548 -8.196496 5.700933 -22.422177 4.931540 -55.731168 3.411662 -1.301693 -2.765444 0.206459 -1.721314 3.793374 -0.326360 0.285320 0.144080 -4.569994 -2.146733 -9.182546 18.527843 -3.541519 14.359151 -0.355352 -0.373634 0.799772 0.276665 -1.704589 -13.165027 -7.876383 -7.565073 39.703077 0.025830 -12.618490 5.494210 -10.936827 -17.910694 5.633081 13.118270 -7.744968 -0.822129 3.970423 -7.814315 0.056516 -3.805101 2.799230 0.308460 0.081850 -0.142850 0.116640 9.899359 18.779213 8.875387 -10.761978 9.513089 -3.195332 -10.908953 2.167042 -0.042448 2.820938 -1.097594 -0.130620 0.036020 0.065820 -0.021910 
-0.717030 17.406820 -3.426260 -22.878050 39.253573 -7.641012 -15.278026 12.228703 2.354218 13.700752 -3.849684 -23.418172 -4.372044 6.363009 20.055576 -0.155193 4.303215 3.095816 -0.051200 -0.452940 0.002700 18.499718 -8.147825 5.754881 -21.516878 5.232325 -56.869761 2.162853 -1.196172 -3.579854 0.219543 -1.644303 3.822068 -0.331980 0.293780 0.151860 -4.584689 -2.088715 -9.205369 18.628543 -3.606149 14.433449 -0.561992 -0.367211 0.866061 0.294728 -1.422958 -13.166782 -7.235648 -8.007070 39.249277 -0.362070 -12.691810 5.947820 -10.226946 -18.379105 5.591302 14.120654 -8.921031 -0.961876 3.864483 -7.166468 0.034886 -3.832380 2.787488 0.295840 0.092110 -0.148860 0.118270 9.095993 19.038702 8.825595 -12.028926 9.905746 -3.238339 -10.152566 2.191141 -0.053145 2.827529 -1.096106 -0.130050 0.030840 0.063780 -0.019370 
-0.768740 17.361590 -3.431400 -23.468845 40.205964 -7.516318 -15.312581 12.157733 2.393908 13.388951 -4.052256 -24.677341 -4.135686 6.683120 22.257709 -0.158732 4.508364 3.005202 -0.050060 -0.463660 0.024990 18.506007 -7.980223 5.876815 -19.613203 5.899820 -59.560178 -0.002490 -1.199960 -4.178430 0.218172 -1.445666 3.895299 -0.341510 0.257810 0.134830 -4.527558 -2.200534 -9.300558 18.421173 -4.031369 14.813795 -0.388909 -0.622706 0.073221 0.401798 -1.083801 -13.387664 -6.539296 -7.888920 39.131787 0.279780 -12.325150 4.557720 -8.644414 -19.325285 5.714280 16.004668 -10.000037 -1.430789 5.654890 -7.469649 -0.042614 -3.803833 2.733164 0.361560 0.054240 -0.118690 0.108470 7.240882 19.782997 8.571543 -15.447477 10.899452 -3.707486 -8.935172 3.060289 0.000157 2.807487 -1.036280 -0.153510 0.039610 0.059690 -0.048520 
-0.826630 17.324060 -3.480010 -25.528599 41.679069 -9.737297 -15.347820 12.312279 2.423161 13.450429 -4.040902 -25.142618 -2.985949 6.506573 23.389792 -0.149893 4.480274 2.975362 -0.038180 -0.471840 0.082220 18.463963 -7.900973 5.964633 -17.835562 6.584720 -62.150987 -1.014075 -1.663838 0.380698 0.202878 -1.150818 3.981672 -0.385680 0.156000 0.117640 -4.515167 -2.499080 -9.376258 20.275070 -5.788160 17.494383 -1.276674 -0.949902 -1.756182 0.702621 -1.191042 -14.329121 -7.392802 -7.140012 41.807708 1.986550 -12.517470 2.401850 -6.946401 -20.924593 6.028990 18.014385 -10.515936 -2.261308 8.844308 -9.312768 -0.143971 -3.700226 2.676455 0.466310 -0.044700 -0.035260 0.073940 4.903576 21.600888 8.779922 -18.555370 11.927178 -4.915431 -11.784279 4.559080 0.014728 2.807828 -0.966102 -0.140640 0.023570 0.044490 -0.083950 
-0.894530 17.268160 -3.519910 -27.509385 43.228971 -12.414583 -15.398669 12.373782 2.439919 14.215668 -3.972150 -25.382902 -2.629837 6.552476 23.997958 -0.129638 4.514477 2.939095 -0.014790 -0.443380 0.137370 18.430940 -7.744163 6.151820 -17.786955 7.015814 -65.485371 0.151245 -2.819236 10.790769 0.137693 -1.359326 3.885994 -0.399450 0.077530 0.105560 -4.462400 -2.755709 -9.415390 21.641473 -7.521184 20.237019 -2.224985 -1.340756 -2.600537 1.146361 -1.125859 -15.054414 -7.667397 -7.061112 43.131478 1.638400 -11.970370 0.404460 -4.982408 -22.461535 6.047599 19.693467 -12.020580 -3.467910 14.059137 -10.400042 -0.557611 -3.655770 2.648226 0.520240 -0.105630 0.031110 0.057660 2.041830 23.250801 9.014466 -20.686708 12.192156 -6.071705 -16.488755 7.329361 -0.263626 2.770446 -0.977900 -0.122050 0.017570 0.014460 -0.103800 
-0.987960 17.220990 -3.578180 -29.057557 43.898246 -15.648111 -15.452398 12.360174 2.248550 15.198377 -3.768698 -24.213306 -2.308379 6.608013 24.244989 -0.126089 4.574688 2.924345 0.061380 -0.330020 0.160690 18.443033 -7.370960 6.570661 -21.090480 6.998819 -69.003627 6.857606 -5.260734 20.867555 -0.040403 -2.660495 3.408293 -0.331120 0.068620 0.083920 -4.401077 -3.044431 -9.456367 22.152404 -9.348203 24.057246 -2.649205 -2.188269 -2.272538 1.332883 -1.946050 -14.707170 -9.051301 -5.780308 42.786219 3.895250 -11.533390 -3.047600 -3.273117 -23.251371 5.738991 21.612132 -13.212767 -5.009168 20.292771 -9.566667 -1.223178 -3.664207 2.677327 0.536470 -0.136500 0.060120 0.099030 0.079416 24.606606 8.219530 -24.039095 13.017462 -7.717367 -21.978524 12.765947 -1.146627 2.657326 -1.079373 -0.119290 0.057930 -0.036050 -0.090190 
-1.093620 17.201290 -3.662170 -29.412356 43.480991 -18.667775 -15.508065 12.309501 1.835850 15.572120 -3.310609 -21.306788 -1.647573 6.275139 22.862475 -0.214475 4.496767 2.972688 0.115090 -0.266230 0.161220 18.483855 -6.888543 7.172101 -26.491145 6.895867 -72.409463 18.473279 -8.705402 26.059598 -0.325921 -4.570647 2.717526 -0.251720 0.119870 0.107230 -4.326217 -3.263436 -9.534206 21.847853 -10.429522 29.273846 -3.230604 -2.522589 -1.174423 1.457773 -2.821287 -13.736586 -9.928044 -5.403248 39.993074 5.580630 -11.474640 -7.028760 -1.634896 -23.673247 4.980896 23.140239 -14.284058 -6.944133 28.870005 -9.939577 -2.425829 -3.761501 2.762366 0.536290 -0.112600 0.038660 0.114960 -1.684690 25.686815 7.348486 -27.120073 12.393449 -9.547943 -29.062482 19.714950 -2.966114 2.504775 -1.197951 -0.138170 0.106050 -0.016920 -0.086290 
-1.178110 17.192130 -3.689280 -29.651439 44.545059 -21.828884 -15.557057 12.232046 1.552572 16.010043 -2.897183 -19.063394 -1.660730 6.449032 22.982908 -0.274832 4.712871 2.937320 0.164030 -0.181820 0.144860 18.502298 -6.727072 7.370054 -27.521695 7.616349 -73.983265 23.885210 -12.798913 33.842752 -0.675040 -6.515507 2.086644 -0.149710 0.220630 0.109340 -4.399912 -3.168776 -9.546953 21.269445 -11.332865 32.670261 -4.097638 -3.390642 1.231958 1.375539 -2.992601 -12.631220 -9.580773 -5.545445 37.821720 5.882240 -11.470720 -9.222650 0.288951 -24.392914 4.012294 24.155663 -16.095520 -9.024744 37.957976 -12.141492 -4.322565 -3.865263 2.800786 0.501950 -0.044890 -0.003740 0.157360 -3.456023 26.073834 6.697362 -26.939071 11.731657 -11.099021 -38.697791 26.654781 -6.602215 2.347702 -1.297601 -0.174840 0.209990 -0.002500 -0.064360 
